HIERARCHY
ROOT hips
{
  OFFSET 0 10.6860622 2.3727825e-15
  CHANNELS 6 Xposition Yposition Zposition Yrotation Xrotation Zrotation
  JOINT leftUpperLeg
  {
    OFFSET 0.6642549969 -0.9402397400000004 0
    CHANNELS 3 Yrotation Xrotation Zrotation
    JOINT leftLowerLeg
    {
      OFFSET 0 -3.997221335632195 0
      CHANNELS 3 Yrotation Xrotation Zrotation
      JOINT leftFoot
      {
        OFFSET -0.13777839790000004 -4.6145792000000005 -0.22186036399999998
        CHANNELS 3 Yrotation Xrotation Zrotation
        JOINT leftToes
        {
          OFFSET -0.03777410834999995 -0.9130806927000008 0.85230013
          CHANNELS 3 Yrotation Xrotation Zrotation
          End Site
          {
            OFFSET -0.03777410834999995 -0.9130806927000008 0.85230013
          }
        }
      }
    }
  }
  JOINT rightUpperLeg
  {
    OFFSET -0.6642778626 -0.9402397400000004 0
    CHANNELS 3 Yrotation Xrotation Zrotation
    JOINT rightLowerLeg
    {
      OFFSET 0 -3.997221452859387 0
      CHANNELS 3 Yrotation Xrotation Zrotation
      JOINT rightFoot
      {
        OFFSET 0.1377926176 -4.6145792000000005 -0.22185782299999995
        CHANNELS 3 Yrotation Xrotation Zrotation
        JOINT rightToes
        {
          OFFSET 0.037780746850000047 -0.9130806927000008 0.85230167
          CHANNELS 3 Yrotation Xrotation Zrotation
          End Site
          {
            OFFSET 0.037780746850000047 -0.9130806927000008 0.85230167
          }
        }
      }
    }
  }
  JOINT spine
  {
    OFFSET 0 0.13988381660000015 0
    CHANNELS 3 Yrotation Xrotation Zrotation
    JOINT chest
    {
      OFFSET 0 0.6191039003973773 0
      CHANNELS 3 Yrotation Xrotation Zrotation
      JOINT upperChest
      {
        OFFSET 0 0.9855186130586943 0
        CHANNELS 3 Yrotation Xrotation Zrotation
        JOINT leftShoulder
        {
          OFFSET 0.1807663869 1.5087829790000005 0
          CHANNELS 3 Yrotation Xrotation Zrotation
          JOINT leftUpperArm
          {
            OFFSET 0.5985063006419806 0 0
            CHANNELS 3 Yrotation Xrotation Zrotation
            JOINT leftLowerArm
            {
              OFFSET 2.2993332369501065 0 0
              CHANNELS 3 Yrotation Xrotation Zrotation
              JOINT leftHand
              {
                OFFSET 2.395047042602395 0 0
                CHANNELS 3 Yrotation Xrotation Zrotation
                JOINT leftIndexProximal
                {
                  OFFSET 0.5766295810000004 0.04556643899499946 0.17265095988184
                  CHANNELS 3 Yrotation Xrotation Zrotation
                  JOINT leftIndexIntermediate
                  {
                    OFFSET 0.2957229000000008 -0.019352197700001517 -0.007932640616999987
                    CHANNELS 3 Yrotation Xrotation Zrotation
                    JOINT leftIndexDistal
                    {
                      OFFSET 0.19008243099999922 -0.012484908149998475 -0.002786250786000012
                      CHANNELS 3 Yrotation Xrotation Zrotation
                      End Site
                      {
                        OFFSET 0.19008243099999922 -0.012484908149998475 -0.002786250786000012
                      }
                    }
                  }
                }
                JOINT leftMiddleProximal
                {
                  OFFSET 0.5834975091000001 0.0524350405149987 0.02204081888183999
                  CHANNELS 3 Yrotation Xrotation Zrotation
                  JOINT leftMiddleIntermediate
                  {
                    OFFSET 0.33880573540000003 -0.019871473270000717 -0.00000971183179999946
                    CHANNELS 3 Yrotation Xrotation Zrotation
                    JOINT leftMiddleDistal
                    {
                      OFFSET 0.20676022730000088 -0.012221336379999448 0.0001471936708000235
                      CHANNELS 3 Yrotation Xrotation Zrotation
                      End Site
                      {
                        OFFSET 0.20676022730000088 -0.012221336379999448 0.0001471936708000235
                      }
                    }
                  }
                }
                JOINT leftLittleProximal
                {
                  OFFSET 0.5344154683999995 -0.012880921405001189 -0.24414037221816004
                  CHANNELS 3 Yrotation Xrotation Zrotation
                  JOINT leftLittleIntermediate
                  {
                    OFFSET 0.21758961730000093 -0.011650919939999227 0.011893592810000034
                    CHANNELS 3 Yrotation Xrotation Zrotation
                    JOINT leftLittleDistal
                    {
                      OFFSET 0.1475273964999999 -0.008152365682999818 0.006001092492999946
                      CHANNELS 3 Yrotation Xrotation Zrotation
                      End Site
                      {
                        OFFSET 0.1475273964999999 -0.008152365682999818 0.006001092492999946
                      }
                    }
                  }
                }
                JOINT leftRingProximal
                {
                  OFFSET 0.5799399463000003 0.026911854694997794 -0.12150566991816003
                  CHANNELS 3 Yrotation Xrotation Zrotation
                  JOINT leftRingIntermediate
                  {
                    OFFSET 0.26167887460000006 -0.013480186499999602 0.010996293000000053
                    CHANNELS 3 Yrotation Xrotation Zrotation
                    JOINT leftRingDistal
                    {
                      OFFSET 0.17667108799999987 -0.008990287899999228 0.0055541023999999065
                      CHANNELS 3 Yrotation Xrotation Zrotation
                      End Site
                      {
                        OFFSET 0.17667108799999987 -0.008990287899999228 0.0055541023999999065
                      }
                    }
                  }
                }
                JOINT leftThumbProximal
                {
                  OFFSET 0.11018806699999972 -0.09448718900500053 0.17047963138184
                  CHANNELS 3 Yrotation Xrotation Zrotation
                  JOINT leftThumbIntermediate
                  {
                    OFFSET 0.31062601459999983 -0.08126270900000132 0.15443142000000007
                    CHANNELS 3 Yrotation Xrotation Zrotation
                    JOINT leftThumbDistal
                    {
                      OFFSET 0.21627175790000086 -0.08833193599999878 0.018771167799999988
                      CHANNELS 3 Yrotation Xrotation Zrotation
                      End Site
                      {
                        OFFSET 0.21627175790000086 -0.08833193599999878 0.018771167799999988
                      }
                    }
                  }
                }
              }
            }
          }
        }
        JOINT neck
        {
          OFFSET 0 1.5463305265074576 0
          CHANNELS 3 Yrotation Xrotation Zrotation
          JOINT head
          {
            OFFSET 0 0.8456443600000344 0
            CHANNELS 3 Yrotation Xrotation Zrotation
            JOINT leftEye
            {
              OFFSET 0.30408573140000006 0.5104519199999995 0.1276382305
              CHANNELS 3 Yrotation Xrotation Zrotation
              End Site
              {
                OFFSET 0.30408573140000006 0.5104519199999995 0.1276382305
              }
            }
            JOINT rightEye
            {
              OFFSET -0.30409491089999996 0.5104519199999995 0.1276379445
              CHANNELS 3 Yrotation Xrotation Zrotation
              End Site
              {
                OFFSET -0.30409491089999996 0.5104519199999995 0.1276379445
              }
            }
            JOINT jaw
            {
              OFFSET -3.155239131000001e-7 -0.11984121820000082 0.60178107
              CHANNELS 3 Yrotation Xrotation Zrotation
              End Site
              {
                OFFSET -3.155239131000001e-7 -0.11984121820000082 0.60178107
              }
            }
          }
        }
        JOINT rightShoulder
        {
          OFFSET -0.1807303465 1.5087829790000005 0
          CHANNELS 3 Yrotation Xrotation Zrotation
          JOINT rightUpperArm
          {
            OFFSET -0.5985063796536958 0 0
            CHANNELS 3 Yrotation Xrotation Zrotation
            JOINT rightLowerArm
            {
              OFFSET -2.2993322059002854 0 0
              CHANNELS 3 Yrotation Xrotation Zrotation
              JOINT rightHand
              {
                OFFSET -2.395045314457259 0 0
                CHANNELS 3 Yrotation Xrotation Zrotation
                JOINT rightIndexProximal
                {
                  OFFSET -0.5764487688300002 0.0441371204405987 0.17361932004999997
                  CHANNELS 3 Yrotation Xrotation Zrotation
                  JOINT rightIndexIntermediate
                  {
                    OFFSET -0.29573011380000047 -0.01934826376999843 -0.007698921482999974
                    CHANNELS 3 Yrotation Xrotation Zrotation
                    JOINT rightIndexDistal
                    {
                      OFFSET -0.19008373999999884 -0.012503266380000655 -0.0026365778999999897
                      CHANNELS 3 Yrotation Xrotation Zrotation
                      End Site
                      {
                        OFFSET -0.19008373999999884 -0.012503266380000655 -0.0026365778999999897
                      }
                    }
                  }
                }
                JOINT rightMiddleProximal
                {
                  OFFSET -0.5834852037300005 0.05211639405060153 0.02307162440000001
                  CHANNELS 3 Yrotation Xrotation Zrotation
                  JOINT rightMiddleIntermediate
                  {
                    OFFSET -0.33880114510000003 -0.019952774050000954 0.0002455003561999819
                    CHANNELS 3 Yrotation Xrotation Zrotation
                    JOINT rightMiddleDistal
                    {
                      OFFSET -0.20675694929999955 -0.012273788999999091 0.00030209124000002766
                      CHANNELS 3 Yrotation Xrotation Zrotation
                      End Site
                      {
                        OFFSET -0.20675694929999955 -0.012273788999999091 0.00030209124000002766
                      }
                    }
                  }
                }
                JOINT rightLittleProximal
                {
                  OFFSET -0.5346811737299992 -0.011214256288399227 -0.24363941305000003
                  CHANNELS 3 Yrotation Xrotation Zrotation
                  JOINT rightLittleIntermediate
                  {
                    OFFSET -0.21757715980000092 -0.011771559690000988 0.01201554387
                    CHANNELS 3 Yrotation Xrotation Zrotation
                    JOINT rightLittleDistal
                    {
                      OFFSET -0.1475201849000004 -0.00822055339600003 0.006082065407000015
                      CHANNELS 3 Yrotation Xrotation Zrotation
                      End Site
                      {
                        OFFSET -0.1475201849000004 -0.00822055339600003 0.006082065407000015
                      }
                    }
                  }
                }
                JOINT rightRingProximal
                {
                  OFFSET -0.5800810755299999 0.027657985680600072 -0.12066365025000003
                  CHANNELS 3 Yrotation Xrotation Zrotation
                  JOINT rightRingIntermediate
                  {
                    OFFSET -0.26166445029999974 -0.013623118409999302 0.011164098990000045
                    CHANNELS 3 Yrotation Xrotation Zrotation
                    JOINT rightRingDistal
                    {
                      OFFSET -0.17666387530000027 -0.009072900100000503 0.005668185599999959
                      CHANNELS 3 Yrotation Xrotation Zrotation
                      End Site
                      {
                        OFFSET -0.17666387530000027 -0.009072900100000503 0.005668185599999959
                      }
                    }
                  }
                }
                JOINT rightThumbProximal
                {
                  OFFSET -0.10997596379000074 -0.09577489355940072 0.16989765924999997
                  CHANNELS 3 Yrotation Xrotation Zrotation
                  JOINT rightThumbIntermediate
                  {
                    OFFSET -0.31036620999999986 -0.08229339117999834 0.15440884469999996
                    CHANNELS 3 Yrotation Xrotation Zrotation
                    JOINT rightThumbDistal
                    {
                      OFFSET -0.21631306399999906 -0.08825326400000111 0.018656797720000014
                      CHANNELS 3 Yrotation Xrotation Zrotation
                      End Site
                      {
                        OFFSET -0.21631306399999906 -0.08825326400000111 0.018656797720000014
                      }
                    }
                  }
                }
              }
            }
          }
        }
      }
    }
  }
}
MOTION
Frames: 5
Frame Time: 0.03333333333333333
-0.020154112436915915 1.793749019134886 0.18944951576227778 7.069345783237309e-15 6.99616987504882 -180 -63.79465958185125 -79.16422055844446 86.27911405376214 151.532344538404 78.70289459653452 92.7891271608977 -26.027701384174307 26.539697026232126 10.833632905765853 0 0 0 40.70613253781024 -81.46645372823811 -64.21157989022203 -90.75301409751654 70.03961772303511 -29.327746317475285 26.79640592638656 29.106452169745893 -11.338847044599303 0 0 0 -0.2693662933807831 -9.898657856329763 -0.0985206367417301 -0.8535952825997933 -7.856887005413446 -0.443389791071442 0 0 0 20.18162496926868 14.305987717455796 -15.086119236793188 -76.7099300617044 0.493340787963966 -1.306845159289336 -64.88128850544695 -19.957447305743532 -6.8414350108246325 7.773602764022004 -50.08032931424004 -27.782841200674273 0 0 0 0 0 0 0 0 0 0 0 0 0 0 0 0 0 0 0 0 0 0 0 0 0 0 0 0 0 0 0 0 0 0 0 0 0 0 0 0 0 0 0 0 0 0 28.524208412773085 0 0 -38.00164880015864 0 0 0 0 0 0 0 0 0 0 -22.76297075489993 11.974241421320974 12.696058080930053 86.45219651660027 0.7473164551039789 -0.15427593403337167 62.07406122330501 -19.886713968767193 3.3505248420047136 -4.865163679875229 -49.291335924222935 31.682281644705032 0 0 0 0 0 0 0 0 0 0 0 0 0 0 0 0 0 0 0 0 0 0 0 0 0 0 0 0 0 0 0 0 0 0 0 0 0 0 0 0 0 0 0 0 0
-0.020154112436915915 1.793749019134886 0.18944951576227778 7.069345783237309e-15 6.99616987504882 -180 -65.0085312268697 -79.11698192906071 87.3791502250218 150.650288426174 78.70310379622909 91.89054400243492 -25.85417077657321 26.71330037479993 10.701171343385905 0 0 0 42.49906693958703 -81.4311757446021 -65.87214801952653 -90.75301409751654 70.03961772303511 -29.327746317475285 26.596433567194197 29.187135826488138 -11.190870455961981 0 0 0 -0.2693662933807831 -9.898657856329763 -0.0985206367417301 -0.854306844356105 -8.213644970173334 -0.43803401903526157 0 0 0 20.101238744396216 14.538377033325046 -15.095775870105907 -76.7099300617044 0.493340787963966 -1.306845159289336 -64.52973125245722 -19.919079011280708 -6.834517668918709 7.822778354009398 -50.04929173808844 -28.016086088521607 0 0 0 0 0 0 0 0 0 0 0 0 0 0 0 0 0 0 0 0 0 0 0 0 0 0 0 0 0 0 0 0 0 0 0 0 0 0 0 0 0 0 0 0 0 0 28.16743999857351 0 0 -36.97474218983087 0 0 0 0 0 0 0 0 0 0 -22.633846697133574 12.216994482870076 12.674970165993672 86.45219651660027 0.7473164551039789 -0.15427593403337167 61.66690796469347 -19.86477117453359 3.348743813767249 -4.865786587475952 -49.26908724628824 31.894618699105305 0 0 0 0 0 0 0 0 0 0 0 0 0 0 0 0 0 0 0 0 0 0 0 0 0 0 0 0 0 0 0 0 0 0 0 0 0 0 0 0 0 0 0 0 0
-0.020154112436915915 1.793749019134886 0.18944951576227778 7.069345783237309e-15 6.99616987504882 -180 -66.21197717268896 -79.0653891365847 88.46875374253091 149.76841265732398 78.70059365220212 90.9921413099374 -25.680822191127053 26.88726073356057 10.569096800607317 0 0 0 44.27634801321292 -81.38823779914618 -67.5170566686039 -90.75301409751654 70.03961772303511 -29.327746317475285 26.396543503259185 29.26826861248774 -11.043100337650507 0 0 0 -0.2693662933807831 -9.898657856329763 -0.0985206367417301 -0.8550527968304694 -8.570402685351814 -0.43266883253183547 0 0 0 20.020727354004695 14.770750574048053 -15.10577950133734 -76.7099300617044 0.493340787963966 -1.306845159289336 -64.1782516328436 -19.880752708855475 -6.8273516576270845 7.8717242672899825 -50.018125402549416 -28.24913732982547 0 0 0 0 0 0 0 0 0 0 0 0 0 0 0 0 0 0 0 0 0 0 0 0 0 0 0 0 0 0 0 0 0 0 0 0 0 0 0 0 0 0 0 0 0 0 27.810671845121302 0 0 -35.94783308369595 0 0 0 0 0 0 0 0 0 0 -22.50469647065592 12.459793818651558 12.654422722789047 86.45219651660027 0.7473164551039789 -0.15427593403337167 61.259810222819326 -19.84284230803905 3.3467972327599336 -4.866283179764275 -49.24683813426946 32.10686205320508 0 0 0 0 0 0 0 0 0 0 0 0 0 0 0 0 0 0 0 0 0 0 0 0 0 0 0 0 0 0 0 0 0 0 0 0 0 0 0 0 0 0 0 0 0
-0.020154112436915915 1.793749019134886 0.18944951576227778 7.069345783237309e-15 6.99616987504882 -180 -68.58517773469775 -78.94931571313737 90.61419033170714 148.00660330384267 78.68749405386633 89.19729782236978 -25.33455813950088 27.23638076667819 10.306010229663274 0 0 0 47.77419858830675 -81.27976107893085 -70.75006517527203 -90.75301409751654 70.03961772303511 -29.327746317475285 25.99686455650971 29.43193944986665 -10.748085546228102 0 0 0 -0.2693662933807831 -9.898657856329763 -0.0985206367417301 -0.8566484618321196 -9.28424791540867 -0.4219036119071044 0 0 0 19.85928094046935 15.235563674312285 -15.126840794946885 -76.7099300617044 0.493340787963966 -1.306845159289336 -63.47520140394948 -19.80418051758138 -6.812264099245022 7.9689199723038415 -49.95538087837711 -28.714703935141163 0 0 0 0 0 0 0 0 0 0 0 0 0 0 0 0 0 0 0 0 0 0 0 0 0 0 0 0 0 0 0 0 0 0 0 0 0 0 0 0 0 0 0 0 0 0 27.096793669019018 0 0 -33.88596176012413 0 0 0 0 0 0 0 0 0 0 -22.24621292627484 12.945658816646187 12.614938506706165 86.45219651660027 0.7473164551039789 -0.15427593403337167 60.445283599929056 -19.798997285102054 3.3424099178448 -4.8669001160754455 -49.20232814345032 32.531136517388276 0 0 0 0 0 0 0 0 0 0 0 0 0 0 0 0 0 0 0 0 0 0 0 0 0 0 0 0 0 0 0 0 0 0 0 0 0 0 0 0 0 0 0 0 0
-0.020154112436915915 1.793749019134886 0.18944951576227778 7.069345783237309e-15 6.99616987504882 -180 -69.75354272342517 -78.88498562668099 91.66863008370527 147.12756678054376 78.67689643110995 88.30175361784102 -25.161639906734038 27.411522431294742 10.17500993029724 0 0 0 49.48966949221386 -81.2145215152361 -72.3330633628404 -90.75301409751654 70.03961772303511 -29.327746317475285 25.797085891673916 29.514470285800535 -10.600845464379576 0 0 0 -0.2693662933807831 -9.898657856329763 -0.0985206367417301 -0.8574990571834217 -9.641310142656975 -0.41650292400231453 0 0 0 19.778341652890024 15.467991553360072 -15.137902588690213 -76.7099300617044 0.493340787963966 -1.306845159289336 -63.12366799688276 -19.765952700308407 -6.804346431840827 8.017188066149211 -49.92382442567716 -28.94723699618346 0 0 0 0 0 0 0 0 0 0 0 0 0 0 0 0 0 0 0 0 0 0 0 0 0 0 0 0 0 0 0 0 0 0 0 0 0 0 0 0 0 0 0 0 0 0 26.739717588625272 0 0 -32.851643029501744 0 0 0 0 0 0 0 0 0 0 -22.11687773343771 13.188712694830006 12.59600691897638 86.45219651660027 0.7473164551039789 -0.15427593403337167 60.037897262786956 -19.777086562471958 3.339964803682041 -4.867018757183019 -49.18006726853025 32.74315608243672 0 0 0 0 0 0 0 0 0 0 0 0 0 0 0 0 0 0 0 0 0 0 0 0 0 0 0 0 0 0 0 0 0 0 0 0 0 0 0 0 0 0 0 0 0
